<?xml version="1.0" encoding="utf-8"?>
<!-- Generator: Adobe Illustrator 19.0.0, SVG Export Plug-In . SVG Version: 6.00 Build 0)  -->
<svg version="1.1" xmlns="http://www.w3.org/2000/svg" xmlns:xlink="http://www.w3.org/1999/xlink" x="0px" y="0px"
	 viewBox="0 0 850.4 850.4" style="enable-background:new 0 0 850.4 850.4;" xml:space="preserve">
<style type="text/css">
	.st0{display:none;}
	.st1{display:inline;}
	.st2{display:inline;fill-rule:evenodd;clip-rule:evenodd;fill:#FFFFFF;}
	.st3{display:inline;fill:none;}
	.st4{fill:none;stroke:#D42616;stroke-miterlimit:10;}
	.st5{display:none;opacity:0.5;fill:#D42400;}
</style>
<g id="Capa_1" class="st0">
	<g class="st1">
		<path d="M722.7,45.5c-1,0-2,0-3,0c0,1.1,0,2.2,0,3.5c1.2,0,2.1,0,3,0V45.5z"/>
		<path d="M130.8,48.5c0-1.2,0-2.1,0-3c-1,0-2,0-3,0c0,1,0,2,0,3C128.7,48.5,129.7,48.5,130.8,48.5z"/>
		<path d="M130.1,804c-0.9,0-1.6,0-2.4,0c0.1,0.5,0.3,1,0.4,1.5h2.1C130.2,805,130.2,804.5,130.1,804z"/>
		<path d="M414.9,45.5c-38,0-76,0-114,0c0,0.4,0,1.1,0.2,1.2c3.7,2,7.5,3.9,11.3,5.8c2.9,1.5,5.8,2.8,8.7,4.4
			c2.3,1.3,4.3,2.9,6.5,4.3c5.3,3.5,10.7,6.9,15.9,10.6c3,2.2,5.8,4.8,8.5,7.3c2.2,2.1,4.2,4.4,6.1,6.7c1.4,1.7,2.3,3.9,3.9,5.4
			c5.8,5.3,9.3,12.2,12.9,18.8c5,9.1,9.1,18.7,13,28.4c3.4,8.5,6.2,17.3,9.2,25.9c2.2,6.4,4.2,12.9,6.4,19.3c1.7,5,3.3,9.9,5.2,14.8
			c2.6,6.5,4.5,13.1,5.5,20.1c0.2,1.7,0.6,3.3,1,4.9c0.1,13.1-0.2,26.2-3,39.2c-2.3,10.6-7,19.8-16.4,25
			c-11.9,6.6-25.3,9.8-38.6,12.2c-17,3.1-34.1,6.2-51.2,8.1c-20.4,2.3-40.9,3.4-61.3,4.9c-8.4,0.6-16.9,0.7-25.4,1.2
			c-16.5,1-32.9,2.1-49.4,3.1c-11.8,0.7-23.5,1.5-35.3,1.9c-4.8,0.2-6.7,1.5-6.7,7c0.2,157.3,0.1,314.6,0.1,471.9c0,1.8,0,3.6,0,5.9
			c25.5,0,50.1,0,74.8-0.1c1.7,0,3.7-0.6,5-1.6c19.1-13.8,38.2-27.7,57-41.8c14.7-11,27.8-23.6,40.5-36.9
			c14.7-15.4,27.6-32.3,38.8-50.3c9.8-15.8,18.2-32.7,26-49.6c7.4-16.3,14.3-33,19.6-50.1c6.1-19.7,10.9-39.8,15-60
			c4.8-23.8,8.6-47.7,12.3-71.7c2.8-18.3,5-36.6,6.9-55c0.5-4.6,0.8-9.3,1.2-13.9c0.2,5,0.4,10,0.8,15c0.4,6.3,1.3,12.5,1.9,18.8
			c0.3,2.7,0.3,5.5,0.6,8.2c0.8,6,1.9,11.9,2.8,17.9c0.8,6,1.2,12,2.3,17.9c1.5,8.8,3.4,17.5,5.1,26.3c0.9,4.8,1.8,9.6,2.7,14.4
			c1,6.1,1.9,12.2,3,18.2c1,5.3,2.1,10.6,3.2,15.9c1.2,5.8,2.1,11.6,3.5,17.3c1.4,5.4,3.3,10.7,4.8,16.1c2,7.4,3.3,15.1,5.9,22.3
			c3.8,10.8,8.3,21.4,12.7,32c3.5,8.3,7,16.6,11,24.6c4.5,9.1,9.5,18,14.5,26.8c2.6,4.6,5.6,9.1,8.4,13.5c2.3,3.6,4.7,7.1,7.1,10.6
			c2.6,3.8,5.4,7.6,8,11.4c1.6,2.2,2.9,4.6,4.7,6.6c3.2,3.6,6.9,6.9,10.1,10.4c6,6.5,11.6,13.4,17.9,19.7c4.7,4.7,9.3,9.6,15,13.4
			c5.1,3.4,9.4,8,14.2,11.9c5.7,4.7,11.4,9.3,17.3,13.7c4.3,3.2,8.9,5.8,13.3,8.8c6,4.1,12,8.3,17.9,12.6c3.7,2.7,7.2,5.5,10.8,8.3
			h78.2V321.5c-8.5-2.1-17.3-1-25.9-2.3c-3.5-0.5-7.1,0.1-10.7-0.1c-12.3-0.7-24.7-1.5-37-2.3c-5-0.3-10.1-0.8-15.1-1.1
			c-5.4-0.4-10.9-0.7-16.3-1c-5.8-0.3-11.7-0.7-17.6-1c-10.8-0.5-21.6-0.8-32.4-1.6c-8-0.6-15.9-1.7-23.8-2.8
			c-6.4-0.9-12.7-2.4-19.1-3.4c-5.2-0.8-10.4-1.3-15.6-2.1c-5-0.8-10-1.8-15-2.8c-4.9-1-9.7-2.2-14.6-3.3c-0.2-0.1-0.5-0.3-0.7-0.3
			c-6.8,0.5-12.1-3.4-17.9-5.9c-2.3-1-4.8-1.6-7-2.8c-2.2-1.3-4.3-3.1-6.1-5c-2.1-2.2-4.2-4.4-5.6-7c-1.9-3.5-3.5-7.3-4.6-11.2
			c-1-3.4-1.4-6.9-1.7-10.4c-0.5-8-1.1-16.1-1-24.1c0-8.7,0.2-17.4,1.1-26.1c0.5-5.1,2.5-10.1,3.8-15.1c0.8-3.1,1.5-6.2,2.4-9.3
			c0.7-2.6,1.7-5.1,2.5-7.7c1.3-4.2,2.3-8.4,3.7-12.5c1.8-5.1,3.8-10.2,5.8-15.2c3.3-8.4,6.7-16.7,10.1-25
			c2.1-5.1,4.1-10.2,6.3-15.2c0.6-1.5,1.6-2.8,2.5-4.1c2.7-3.6,5.4-7.2,8.1-10.8c1.5-2.1,3-4.4,4.4-6.5c3.3-4.8,6.8-9.2,11.8-12.5
			c3.9-2.6,7-6.4,10.8-9.3c3.6-2.8,7.6-5,11.5-7.4c3.5-2.2,7.1-4.3,10.6-6.6c0.7-0.4,1.1-1.3,1.6-2c-32.7,0-65.5,0-98.2,0
			c0-0.2,0-0.3,0-0.5c-6.6,0-12.6,0-19,0C414.9,45.1,414.9,45.3,414.9,45.5z"/>
	</g>
	<line class="st2" x1="300.9" y1="45.5" x2="532" y2="45.5"/>
	<path class="st3" d="M663.6,84.1c0-0.6,0-1,0-1"/>
	<path class="st3" d="M532,45.5C360.6,235.1,416.6,317.1,720.6,320.1"/>
</g>
<g id="Capa_2">
	<path class="st4" d="M593.2,312.9c-31.5-1-39-2.5-74.5-8.5c-31.2-5.3-53-7.7-64.5-16.5c-21-16-23-47-18-87
		c2.8-22.7,7.3-27.9,21.5-65c26.5-69,74-91,74-91H425.2h0H318.7c0,0,47.5,22,74,91c14.2,37.1,18.7,42.3,21.5,65c5,40,3,71-18,87
		c-11.5,8.8-33.3,11.2-64.5,16.5c-35.5,6-43,7.5-74.5,8.5c-42.1,1.3-129.3,8.3-129.3,8.3v484.3l78.5-0.3c0,0,50.2-31.8,114.2-96.3
		c21.6-21.8,63-94,85.5-199c10.4-48.3,16.7-92.2,19-118.3c2.3,26.1,8.6,70,19,118.3c22.5,105,63.9,177.2,85.5,199
		c64,64.5,114.3,96.3,114.3,96.3l78.5,0.3V321.2C722.5,321.2,635.3,314.3,593.2,312.9z"/>
	<path class="st5" d="M414.8,45.1h0.7H414.8l-0.1,334.4c0.1,2.4,0.3,5,0.5,8"/>
</g>
</svg>
